<svg width="1139" height="94" viewBox="0 0 1139 94" fill="none" xmlns="http://www.w3.org/2000/svg">
<path d="M988.336 47.076C989.248 47.22 990.076 47.592 990.82 48.192C991.588 48.792 992.188 49.536 992.62 50.424C993.076 51.312 993.304 52.26 993.304 53.268C993.304 54.54 992.98 55.692 992.332 56.724C991.684 57.732 990.736 58.536 989.488 59.136C988.264 59.712 986.812 60 985.132 60H975.772V34.908H984.772C986.476 34.908 987.928 35.196 989.128 35.772C990.328 36.324 991.228 37.08 991.828 38.04C992.428 39 992.728 40.08 992.728 41.28C992.728 42.768 992.32 44.004 991.504 44.988C990.712 45.948 989.656 46.644 988.336 47.076ZM979.048 45.744H984.556C986.092 45.744 987.28 45.384 988.12 44.664C988.96 43.944 989.38 42.948 989.38 41.676C989.38 40.404 988.96 39.408 988.12 38.688C987.28 37.968 986.068 37.608 984.484 37.608H979.048V45.744ZM984.844 57.3C986.476 57.3 987.748 56.916 988.66 56.148C989.572 55.38 990.028 54.312 990.028 52.944C990.028 51.552 989.548 50.46 988.588 49.668C987.628 48.852 986.344 48.444 984.736 48.444H979.048V57.3H984.844ZM999.542 37.068C998.918 37.068 998.39 36.852 997.958 36.42C997.526 35.988 997.31 35.46 997.31 34.836C997.31 34.212 997.526 33.684 997.958 33.252C998.39 32.82 998.918 32.604 999.542 32.604C1000.14 32.604 1000.65 32.82 1001.05 33.252C1001.49 33.684 1001.7 34.212 1001.7 34.836C1001.7 35.46 1001.49 35.988 1001.05 36.42C1000.65 36.852 1000.14 37.068 999.542 37.068ZM1001.13 40.272V60H997.85V40.272H1001.13ZM1015.31 60.324C1013.47 60.324 1011.79 59.904 1010.27 59.064C1008.79 58.224 1007.61 57.036 1006.75 55.5C1005.91 53.94 1005.49 52.14 1005.49 50.1C1005.49 48.084 1005.92 46.308 1006.78 44.772C1007.67 43.212 1008.87 42.024 1010.38 41.208C1011.89 40.368 1013.59 39.948 1015.46 39.948C1017.33 39.948 1019.02 40.368 1020.53 41.208C1022.05 42.024 1023.23 43.2 1024.1 44.736C1024.99 46.272 1025.43 48.06 1025.43 50.1C1025.43 52.14 1024.97 53.94 1024.06 55.5C1023.17 57.036 1021.96 58.224 1020.43 59.064C1018.89 59.904 1017.19 60.324 1015.31 60.324ZM1015.31 57.444C1016.49 57.444 1017.59 57.168 1018.63 56.616C1019.66 56.064 1020.49 55.236 1021.11 54.132C1021.76 53.028 1022.08 51.684 1022.08 50.1C1022.08 48.516 1021.77 47.172 1021.15 46.068C1020.52 44.964 1019.71 44.148 1018.7 43.62C1017.69 43.068 1016.6 42.792 1015.42 42.792C1014.22 42.792 1013.12 43.068 1012.11 43.62C1011.13 44.148 1010.33 44.964 1009.73 46.068C1009.13 47.172 1008.83 48.516 1008.83 50.1C1008.83 51.708 1009.12 53.064 1009.7 54.168C1010.3 55.272 1011.09 56.1 1012.07 56.652C1013.06 57.18 1014.14 57.444 1015.31 57.444ZM1037.69 60.252C1036.04 60.252 1034.55 59.964 1033.23 59.388C1031.93 58.788 1030.91 57.972 1030.17 56.94C1029.42 55.884 1029.04 54.672 1029.02 53.304H1032.51C1032.63 54.48 1033.11 55.476 1033.95 56.292C1034.81 57.084 1036.06 57.48 1037.69 57.48C1039.25 57.48 1040.48 57.096 1041.36 56.328C1042.28 55.536 1042.73 54.528 1042.73 53.304C1042.73 52.344 1042.47 51.564 1041.94 50.964C1041.41 50.364 1040.75 49.908 1039.96 49.596C1039.17 49.284 1038.1 48.948 1036.76 48.588C1035.1 48.156 1033.77 47.724 1032.76 47.292C1031.78 46.86 1030.92 46.188 1030.2 45.276C1029.51 44.34 1029.16 43.092 1029.16 41.532C1029.16 40.164 1029.51 38.952 1030.2 37.896C1030.9 36.84 1031.87 36.024 1033.12 35.448C1034.39 34.872 1035.84 34.584 1037.48 34.584C1039.83 34.584 1041.75 35.172 1043.24 36.348C1044.75 37.524 1045.6 39.084 1045.79 41.028H1042.19C1042.07 40.068 1041.57 39.228 1040.68 38.508C1039.79 37.764 1038.62 37.392 1037.15 37.392C1035.78 37.392 1034.67 37.752 1033.8 38.472C1032.94 39.168 1032.51 40.152 1032.51 41.424C1032.51 42.336 1032.76 43.08 1033.26 43.656C1033.79 44.232 1034.43 44.676 1035.17 44.988C1035.94 45.276 1037.01 45.612 1038.38 45.996C1040.03 46.452 1041.36 46.908 1042.37 47.364C1043.38 47.796 1044.24 48.48 1044.96 49.416C1045.68 50.328 1046.04 51.576 1046.04 53.16C1046.04 54.384 1045.72 55.536 1045.07 56.616C1044.42 57.696 1043.46 58.572 1042.19 59.244C1040.92 59.916 1039.42 60.252 1037.69 60.252ZM1059.47 60.324C1057.62 60.324 1055.94 59.904 1054.43 59.064C1052.94 58.224 1051.77 57.036 1050.9 55.5C1050.06 53.94 1049.64 52.14 1049.64 50.1C1049.64 48.084 1050.07 46.308 1050.94 44.772C1051.83 43.212 1053.03 42.024 1054.54 41.208C1056.05 40.368 1057.74 39.948 1059.61 39.948C1061.49 39.948 1063.18 40.368 1064.69 41.208C1066.2 42.024 1067.39 43.2 1068.25 44.736C1069.14 46.272 1069.59 48.06 1069.59 50.1C1069.59 52.14 1069.13 53.94 1068.22 55.5C1067.33 57.036 1066.12 58.224 1064.58 59.064C1063.05 59.904 1061.34 60.324 1059.47 60.324ZM1059.47 57.444C1060.65 57.444 1061.75 57.168 1062.78 56.616C1063.81 56.064 1064.64 55.236 1065.27 54.132C1065.91 53.028 1066.24 51.684 1066.24 50.1C1066.24 48.516 1065.93 47.172 1065.3 46.068C1064.68 44.964 1063.86 44.148 1062.85 43.62C1061.85 43.068 1060.75 42.792 1059.58 42.792C1058.38 42.792 1057.27 43.068 1056.27 43.62C1055.28 44.148 1054.49 44.964 1053.89 46.068C1053.29 47.172 1052.99 48.516 1052.99 50.1C1052.99 51.708 1053.28 53.064 1053.85 54.168C1054.45 55.272 1055.25 56.1 1056.23 56.652C1057.21 57.18 1058.29 57.444 1059.47 57.444ZM1082.5 60.324C1080.65 60.324 1078.97 59.904 1077.46 59.064C1075.97 58.224 1074.79 57.036 1073.93 55.5C1073.09 53.94 1072.67 52.14 1072.67 50.1C1072.67 48.084 1073.1 46.308 1073.97 44.772C1074.85 43.212 1076.05 42.024 1077.57 41.208C1079.08 40.368 1080.77 39.948 1082.64 39.948C1084.51 39.948 1086.21 40.368 1087.72 41.208C1089.23 42.024 1090.42 43.2 1091.28 44.736C1092.17 46.272 1092.61 48.06 1092.61 50.1C1092.61 52.14 1092.16 53.94 1091.25 55.5C1090.36 57.036 1089.15 58.224 1087.61 59.064C1086.07 59.904 1084.37 60.324 1082.5 60.324ZM1082.5 57.444C1083.67 57.444 1084.78 57.168 1085.81 56.616C1086.84 56.064 1087.67 55.236 1088.29 54.132C1088.94 53.028 1089.27 51.684 1089.27 50.1C1089.27 48.516 1088.95 47.172 1088.33 46.068C1087.71 44.964 1086.89 44.148 1085.88 43.62C1084.87 43.068 1083.78 42.792 1082.61 42.792C1081.41 42.792 1080.3 43.068 1079.29 43.62C1078.31 44.148 1077.52 44.964 1076.92 46.068C1076.32 47.172 1076.02 48.516 1076.02 50.1C1076.02 51.708 1076.31 53.064 1076.88 54.168C1077.48 55.272 1078.27 56.1 1079.26 56.652C1080.24 57.18 1081.32 57.444 1082.5 57.444ZM1100.2 33.36V60H1096.92V33.36H1100.2Z" fill="#858585"/>
<circle cx="937" cy="47" r="29" fill="#0085FF" fill-opacity="0.5"/>
<circle cx="939" cy="50" r="25" fill="#0085FF" fill-opacity="0.5"/>
<circle cx="940.5" cy="53.5" r="18.5" fill="#0085FF" fill-opacity="0.5"/>
<path d="M684.532 49.04C685.996 49.352 687.172 50.084 688.06 51.236C688.948 52.364 689.392 53.66 689.392 55.124C689.392 57.236 688.648 58.916 687.16 60.164C685.696 61.388 683.644 62 681.004 62H669.232V36.728H680.608C683.176 36.728 685.18 37.316 686.62 38.492C688.084 39.668 688.816 41.264 688.816 43.28C688.816 44.768 688.42 46.004 687.628 46.988C686.86 47.972 685.828 48.656 684.532 49.04ZM675.388 46.952H679.42C680.428 46.952 681.196 46.736 681.724 46.304C682.276 45.848 682.552 45.188 682.552 44.324C682.552 43.46 682.276 42.8 681.724 42.344C681.196 41.888 680.428 41.66 679.42 41.66H675.388V46.952ZM679.924 57.032C680.956 57.032 681.748 56.804 682.3 56.348C682.876 55.868 683.164 55.184 683.164 54.296C683.164 53.408 682.864 52.712 682.264 52.208C681.688 51.704 680.884 51.452 679.852 51.452H675.388V57.032H679.924ZM708.694 57.536H699.262L697.75 62H691.306L700.45 36.728H707.578L716.722 62H710.206L708.694 57.536ZM707.11 52.784L703.978 43.532L700.882 52.784H707.11ZM732.393 62L727.137 52.46H725.661V62H719.505V36.728H729.837C731.829 36.728 733.521 37.076 734.913 37.772C736.329 38.468 737.385 39.428 738.081 40.652C738.777 41.852 739.125 43.196 739.125 44.684C739.125 46.364 738.645 47.864 737.685 49.184C736.749 50.504 735.357 51.44 733.509 51.992L739.341 62H732.393ZM725.661 48.104H729.477C730.605 48.104 731.445 47.828 731.997 47.276C732.573 46.724 732.861 45.944 732.861 44.936C732.861 43.976 732.573 43.22 731.997 42.668C731.445 42.116 730.605 41.84 729.477 41.84H725.661V48.104ZM741.946 49.328C741.946 46.832 742.486 44.612 743.566 42.668C744.646 40.7 746.146 39.176 748.066 38.096C750.01 36.992 752.206 36.44 754.654 36.44C757.654 36.44 760.222 37.232 762.358 38.816C764.494 40.4 765.922 42.56 766.642 45.296H759.874C759.37 44.24 758.65 43.436 757.714 42.884C756.802 42.332 755.758 42.056 754.582 42.056C752.686 42.056 751.15 42.716 749.974 44.036C748.798 45.356 748.21 47.12 748.21 49.328C748.21 51.536 748.798 53.3 749.974 54.62C751.15 55.94 752.686 56.6 754.582 56.6C755.758 56.6 756.802 56.324 757.714 55.772C758.65 55.22 759.37 54.416 759.874 53.36H766.642C765.922 56.096 764.494 58.256 762.358 59.84C760.222 61.4 757.654 62.18 754.654 62.18C752.206 62.18 750.01 61.64 748.066 60.56C746.146 59.456 744.646 57.932 743.566 55.988C742.486 54.044 741.946 51.824 741.946 49.328ZM782.364 62.252C779.988 62.252 777.804 61.7 775.812 60.596C773.844 59.492 772.272 57.956 771.096 55.988C769.944 53.996 769.368 51.764 769.368 49.292C769.368 46.82 769.944 44.6 771.096 42.632C772.272 40.664 773.844 39.128 775.812 38.024C777.804 36.92 779.988 36.368 782.364 36.368C784.74 36.368 786.912 36.92 788.88 38.024C790.872 39.128 792.432 40.664 793.56 42.632C794.712 44.6 795.288 46.82 795.288 49.292C795.288 51.764 794.712 53.996 793.56 55.988C792.408 57.956 790.848 59.492 788.88 60.596C786.912 61.7 784.74 62.252 782.364 62.252ZM782.364 56.636C784.38 56.636 785.988 55.964 787.188 54.62C788.412 53.276 789.024 51.5 789.024 49.292C789.024 47.06 788.412 45.284 787.188 43.964C785.988 42.62 784.38 41.948 782.364 41.948C780.324 41.948 778.692 42.608 777.468 43.928C776.268 45.248 775.668 47.036 775.668 49.292C775.668 51.524 776.268 53.312 777.468 54.656C778.692 55.976 780.324 56.636 782.364 56.636ZM810.664 62.252C808.288 62.252 806.104 61.7 804.112 60.596C802.144 59.492 800.572 57.956 799.396 55.988C798.244 53.996 797.668 51.764 797.668 49.292C797.668 46.82 798.244 44.6 799.396 42.632C800.572 40.664 802.144 39.128 804.112 38.024C806.104 36.92 808.288 36.368 810.664 36.368C813.04 36.368 815.212 36.92 817.18 38.024C819.172 39.128 820.732 40.664 821.86 42.632C823.012 44.6 823.588 46.82 823.588 49.292C823.588 51.764 823.012 53.996 821.86 55.988C820.708 57.956 819.148 59.492 817.18 60.596C815.212 61.7 813.04 62.252 810.664 62.252ZM810.664 56.636C812.68 56.636 814.288 55.964 815.488 54.62C816.712 53.276 817.324 51.5 817.324 49.292C817.324 47.06 816.712 45.284 815.488 43.964C814.288 42.62 812.68 41.948 810.664 41.948C808.624 41.948 806.992 42.608 805.768 43.928C804.568 45.248 803.968 47.036 803.968 49.292C803.968 51.524 804.568 53.312 805.768 54.656C806.992 55.976 808.624 56.636 810.664 56.636Z" fill="#858585"/>
<rect x="612.973" y="25.4385" width="16.8767" height="17.6438" fill="#C4C4C4"/>
<rect x="603" y="46.1506" width="26.8493" height="26.8493" fill="#C4C4C4"/>
<rect x="632.918" y="46.1506" width="16.1096" height="16.1096" fill="#C4C4C4"/>
<rect x="632.918" y="17" width="26.0822" height="26.0822" fill="#C4C4C4"/>
<path d="M396.287 60H392.051V37.8867H384.527V34.3008H403.793V37.8867H396.287V60ZM411.439 32.6484V39.5215C411.439 40.2363 411.416 40.9336 411.369 41.6133C411.334 42.293 411.293 42.8203 411.246 43.1953H411.475C411.885 42.5156 412.389 41.959 412.986 41.5254C413.584 41.0801 414.252 40.7461 414.99 40.5234C415.74 40.3008 416.537 40.1895 417.381 40.1895C418.869 40.1895 420.135 40.4414 421.178 40.9453C422.221 41.4375 423.018 42.2051 423.568 43.248C424.131 44.291 424.412 45.6445 424.412 47.3086V60H420.281V48.082C420.281 46.5703 419.971 45.4395 419.35 44.6895C418.729 43.9277 417.768 43.5469 416.467 43.5469C415.213 43.5469 414.217 43.8105 413.479 44.3379C412.752 44.8535 412.23 45.6211 411.914 46.6406C411.598 47.6484 411.439 48.8789 411.439 50.332V60H407.309V32.6484H411.439ZM437.947 40.1719C439.682 40.1719 441.17 40.5293 442.412 41.2441C443.654 41.959 444.609 42.9727 445.277 44.2852C445.945 45.5977 446.279 47.168 446.279 48.9961V51.2109H433.289C433.336 53.0977 433.84 54.5508 434.801 55.5703C435.773 56.5898 437.133 57.0996 438.879 57.0996C440.121 57.0996 441.234 56.9824 442.219 56.748C443.215 56.502 444.24 56.1445 445.295 55.6758V59.0332C444.322 59.4902 443.332 59.8242 442.324 60.0352C441.316 60.2461 440.109 60.3516 438.703 60.3516C436.793 60.3516 435.111 59.9824 433.658 59.2441C432.217 58.4941 431.086 57.3809 430.266 55.9043C429.457 54.4277 429.053 52.5938 429.053 50.4023C429.053 48.2227 429.422 46.3711 430.16 44.8477C430.898 43.3242 431.936 42.1641 433.271 41.3672C434.607 40.5703 436.166 40.1719 437.947 40.1719ZM437.947 43.2832C436.646 43.2832 435.592 43.7051 434.783 44.5488C433.986 45.3926 433.518 46.6289 433.377 48.2578H442.236C442.225 47.2852 442.061 46.4238 441.744 45.6738C441.439 44.9238 440.971 44.3379 440.338 43.916C439.717 43.4941 438.92 43.2832 437.947 43.2832ZM455.385 60L447.984 40.541H452.361L456.369 51.9668C456.627 52.6934 456.861 53.4785 457.072 54.3223C457.283 55.166 457.43 55.875 457.512 56.4492H457.652C457.734 55.8516 457.893 55.1367 458.127 54.3047C458.361 53.4609 458.602 52.6816 458.848 51.9668L462.855 40.541H467.215L459.814 60H455.385ZM480.029 40.1719C480.357 40.1719 480.715 40.1895 481.102 40.2246C481.488 40.2598 481.822 40.3066 482.104 40.3652L481.717 44.2324C481.471 44.1621 481.166 44.1094 480.803 44.0742C480.451 44.0391 480.135 44.0215 479.854 44.0215C479.115 44.0215 478.412 44.1445 477.744 44.3906C477.076 44.625 476.484 44.9883 475.969 45.4805C475.453 45.9609 475.049 46.5645 474.756 47.291C474.463 48.0176 474.316 48.8613 474.316 49.8223V60H470.168V40.541H473.402L473.965 43.9688H474.158C474.545 43.2773 475.025 42.6445 475.6 42.0703C476.174 41.4961 476.83 41.0391 477.568 40.6992C478.318 40.3477 479.139 40.1719 480.029 40.1719ZM502.934 50.2266C502.934 51.8438 502.723 53.2793 502.301 54.5332C501.879 55.7871 501.264 56.8477 500.455 57.7148C499.646 58.5703 498.674 59.2266 497.537 59.6836C496.4 60.1289 495.117 60.3516 493.688 60.3516C492.352 60.3516 491.127 60.1289 490.014 59.6836C488.9 59.2266 487.934 58.5703 487.113 57.7148C486.305 56.8477 485.678 55.7871 485.232 54.5332C484.787 53.2793 484.564 51.8438 484.564 50.2266C484.564 48.082 484.934 46.2656 485.672 44.7773C486.422 43.2773 487.488 42.1348 488.871 41.3496C490.254 40.5645 491.9 40.1719 493.811 40.1719C495.604 40.1719 497.186 40.5645 498.557 41.3496C499.928 42.1348 501 43.2773 501.773 44.7773C502.547 46.2773 502.934 48.0938 502.934 50.2266ZM488.818 50.2266C488.818 51.6445 488.988 52.8574 489.328 53.8652C489.68 54.873 490.219 55.6465 490.945 56.1855C491.672 56.7129 492.609 56.9766 493.758 56.9766C494.906 56.9766 495.844 56.7129 496.57 56.1855C497.297 55.6465 497.83 54.873 498.17 53.8652C498.51 52.8574 498.68 51.6445 498.68 50.2266C498.68 48.8086 498.51 47.6074 498.17 46.623C497.83 45.627 497.297 44.8711 496.57 44.3555C495.844 43.8281 494.9 43.5645 493.74 43.5645C492.029 43.5645 490.781 44.1387 489.996 45.2871C489.211 46.4355 488.818 48.082 488.818 50.2266ZM517.822 40.1719C520.014 40.1719 521.719 40.7402 522.938 41.877C524.168 43.002 524.783 44.8125 524.783 47.3086V60H520.652V48.082C520.652 46.5703 520.342 45.4395 519.721 44.6895C519.1 43.9277 518.139 43.5469 516.838 43.5469C514.951 43.5469 513.639 44.127 512.9 45.2871C512.174 46.4473 511.811 48.1289 511.811 50.332V60H507.68V40.541H510.896L511.477 43.1777H511.705C512.127 42.498 512.648 41.9414 513.27 41.5078C513.902 41.0625 514.605 40.7285 515.379 40.5059C516.164 40.2832 516.979 40.1719 517.822 40.1719Z" fill="#858585"/>
<mask id="path-11-outside-1_1741_56" maskUnits="userSpaceOnUse" x="336" y="23" width="41" height="48" fill="black">
<rect fill="white" x="336" y="23" width="41" height="48"/>
<path d="M361.5 24.5V70H350.531V24.5H361.5ZM375.188 24.5V32.9688H337.156V24.5H375.188Z"/>
</mask>
<path d="M361.5 24.5H362.5V23.5H361.5V24.5ZM361.5 70V71H362.5V70H361.5ZM350.531 70H349.531V71H350.531V70ZM350.531 24.5V23.5H349.531V24.5H350.531ZM375.188 24.5H376.188V23.5H375.188V24.5ZM375.188 32.9688V33.9688H376.188V32.9688H375.188ZM337.156 32.9688H336.156V33.9688H337.156V32.9688ZM337.156 24.5V23.5H336.156V24.5H337.156ZM360.5 24.5V70H362.5V24.5H360.5ZM361.5 69H350.531V71H361.5V69ZM351.531 70V24.5H349.531V70H351.531ZM350.531 25.5H361.5V23.5H350.531V25.5ZM374.188 24.5V32.9688H376.188V24.5H374.188ZM375.188 31.9688H337.156V33.9688H375.188V31.9688ZM338.156 32.9688V24.5H336.156V32.9688H338.156ZM337.156 25.5H375.188V23.5H337.156V25.5Z" fill="#00FFB2" mask="url(#path-11-outside-1_1741_56)"/>
<mask id="path-13-outside-2_1741_56" maskUnits="userSpaceOnUse" x="330" y="19" width="41" height="48" fill="black">
<rect fill="white" x="330" y="19" width="41" height="48"/>
<path d="M355.5 20.5V66H344.531V20.5H355.5ZM369.188 20.5V28.9688H331.156V20.5H369.188Z"/>
</mask>
<path d="M355.5 20.5H356.5V19.5H355.5V20.5ZM355.5 66V67H356.5V66H355.5ZM344.531 66H343.531V67H344.531V66ZM344.531 20.5V19.5H343.531V20.5H344.531ZM369.188 20.5H370.188V19.5H369.188V20.5ZM369.188 28.9688V29.9688H370.188V28.9688H369.188ZM331.156 28.9688H330.156V29.9688H331.156V28.9688ZM331.156 20.5V19.5H330.156V20.5H331.156ZM354.5 20.5V66H356.5V20.5H354.5ZM355.5 65H344.531V67H355.5V65ZM345.531 66V20.5H343.531V66H345.531ZM344.531 21.5H355.5V19.5H344.531V21.5ZM368.188 20.5V28.9688H370.188V20.5H368.188ZM369.188 27.9688H331.156V29.9688H369.188V27.9688ZM332.156 28.9688V20.5H330.156V28.9688H332.156ZM331.156 21.5H369.188V19.5H331.156V21.5Z" fill="#FFA800" mask="url(#path-13-outside-2_1741_56)"/>
<path d="M70.1641 50.3164H63.8008V45.5527H70.1641C71.0312 45.5527 71.7344 45.4062 72.2734 45.1133C72.8125 44.8203 73.2051 44.416 73.4512 43.9004C73.709 43.373 73.8379 42.7812 73.8379 42.125C73.8379 41.4219 73.709 40.7715 73.4512 40.1738C73.2051 39.5762 72.8125 39.0957 72.2734 38.7324C71.7344 38.3574 71.0312 38.1699 70.1641 38.1699H66.1211V59H59.9512V33.4062H70.1641C72.2148 33.4062 73.9785 33.7812 75.4551 34.5312C76.9434 35.2812 78.0859 36.3125 78.8828 37.625C79.6797 38.9258 80.0781 40.4141 80.0781 42.0898C80.0781 43.7422 79.6797 45.1836 78.8828 46.4141C78.0859 47.6445 76.9434 48.6055 75.4551 49.2969C73.9785 49.9766 72.2148 50.3164 70.1641 50.3164ZM101.014 54.2539V59H87.373V54.2539H101.014ZM89.5703 33.4062V59H83.4004V33.4062H89.5703ZM99.2559 43.5664V48.1543H87.373V43.5664H99.2559ZM101.066 33.4062V38.1699H87.373V33.4062H101.066ZM116.289 33.4062V59H110.119V33.4062H116.289ZM123.988 33.4062V38.1699H102.596V33.4062H123.988ZM126.607 33.4062H136.68C138.648 33.4062 140.359 33.6992 141.812 34.2852C143.266 34.8711 144.385 35.7383 145.17 36.8867C145.967 38.0352 146.365 39.4531 146.365 41.1406C146.365 42.6055 146.137 43.8301 145.68 44.8145C145.223 45.7988 144.584 46.6133 143.764 47.2578C142.955 47.8906 142.012 48.4121 140.934 48.8223L138.912 49.9648H130.457L130.422 45.2012H136.68C137.465 45.2012 138.115 45.0605 138.631 44.7793C139.146 44.498 139.533 44.0996 139.791 43.584C140.061 43.0566 140.195 42.4297 140.195 41.7031C140.195 40.9648 140.061 40.332 139.791 39.8047C139.521 39.2773 139.123 38.873 138.596 38.5918C138.08 38.3105 137.441 38.1699 136.68 38.1699H132.777V59H126.607V33.4062ZM140.617 59L134.957 47.6797L141.496 47.6445L147.227 58.7363V59H140.617ZM171.748 45.6934V46.7305C171.748 48.6875 171.473 50.4453 170.922 52.0039C170.383 53.5508 169.615 54.875 168.619 55.9766C167.623 57.0664 166.445 57.9043 165.086 58.4902C163.727 59.0645 162.227 59.3516 160.586 59.3516C158.934 59.3516 157.422 59.0645 156.051 58.4902C154.691 57.9043 153.508 57.0664 152.5 55.9766C151.504 54.875 150.73 53.5508 150.18 52.0039C149.641 50.4453 149.371 48.6875 149.371 46.7305V45.6934C149.371 43.7363 149.641 41.9785 150.18 40.4199C150.73 38.8613 151.498 37.5371 152.482 36.4473C153.479 35.3457 154.656 34.5078 156.016 33.9336C157.387 33.3477 158.898 33.0547 160.551 33.0547C162.191 33.0547 163.691 33.3477 165.051 33.9336C166.422 34.5078 167.605 35.3457 168.602 36.4473C169.598 37.5371 170.371 38.8613 170.922 40.4199C171.473 41.9785 171.748 43.7363 171.748 45.6934ZM165.49 46.7305V45.6582C165.49 44.3926 165.379 43.2793 165.156 42.3184C164.945 41.3457 164.629 40.5312 164.207 39.875C163.785 39.2188 163.264 38.7266 162.643 38.3984C162.033 38.0586 161.336 37.8887 160.551 37.8887C159.73 37.8887 159.016 38.0586 158.406 38.3984C157.797 38.7266 157.287 39.2188 156.877 39.875C156.467 40.5312 156.156 41.3457 155.945 42.3184C155.746 43.2793 155.646 44.3926 155.646 45.6582V46.7305C155.646 47.9844 155.746 49.0977 155.945 50.0703C156.156 51.0312 156.467 51.8457 156.877 52.5137C157.299 53.1816 157.814 53.6855 158.424 54.0254C159.045 54.3652 159.766 54.5352 160.586 54.5352C161.371 54.5352 162.068 54.3652 162.678 54.0254C163.287 53.6855 163.797 53.1816 164.207 52.5137C164.629 51.8457 164.945 51.0312 165.156 50.0703C165.379 49.0977 165.49 47.9844 165.49 46.7305ZM178.006 33.4062H183.033L188.746 51.2129L194.459 33.4062H199.486L190.785 59H186.707L178.006 33.4062ZM174.947 33.4062H180.15L181.117 53.0234V59H174.947V33.4062ZM197.342 33.4062H202.562V59H196.375V53.0234L197.342 33.4062ZM217.68 38.7852L211.439 59H204.812L214.217 33.4062H218.418L217.68 38.7852ZM222.848 59L216.59 38.7852L215.781 33.4062H220.035L229.492 59H222.848ZM222.602 49.4551V54.2188H209.471V49.4551H222.602ZM236.734 33.4062L240.918 41.9141L245.102 33.4062H252.133L244.996 46.0977L252.326 59H245.225L240.918 50.334L236.611 59H229.492L236.84 46.0977L229.686 33.4062H236.734Z" fill="#858585"/>
<path d="M12 46.5L50.25 24.4164L50.25 68.5836L12 46.5Z" fill="#20BDEF"/>
<path d="M14 56.5L38.75 42.2106L38.75 70.7894L14 56.5Z" fill="#FF0000"/>
</svg>
